<?xml version="1.0" encoding="UTF-8" standalone="no"?>
<svg
   xmlns:dc="http://purl.org/dc/elements/1.1/"
   xmlns:cc="http://creativecommons.org/ns#"
   xmlns:rdf="http://www.w3.org/1999/02/22-rdf-syntax-ns#"
   xmlns:svg="http://www.w3.org/2000/svg"
   xmlns="http://www.w3.org/2000/svg"
   xmlns:sodipodi="http://sodipodi.sourceforge.net/DTD/sodipodi-0.dtd"
   xmlns:inkscape="http://www.inkscape.org/namespaces/inkscape"
   id="Layer_1"
   version="1.1"
   viewBox="0 0 64 64"
   xml:space="preserve"
   sodipodi:docname="AppIconLight.svg"
   inkscape:version="1.0.1 (3bc2e813f5, 2020-09-07)"
   width="64"
   height="64"
   inkscape:export-filename="C:\Users\yusuf\Downloads\İkonlar\kitap.png"
   inkscape:export-xdpi="96"
   inkscape:export-ydpi="96"><metadata
     id="metadata910"><rdf:RDF><cc:Work
         rdf:about=""><dc:format>image/svg+xml</dc:format><dc:type
           rdf:resource="http://purl.org/dc/dcmitype/StillImage" /><dc:title></dc:title></cc:Work></rdf:RDF></metadata><defs
     id="defs908" /><sodipodi:namedview
     pagecolor="#ffffff"
     bordercolor="#666666"
     borderopacity="1"
     objecttolerance="10"
     gridtolerance="10"
     guidetolerance="10"
     inkscape:pageopacity="0"
     inkscape:pageshadow="2"
     inkscape:window-width="1366"
     inkscape:window-height="705"
     id="namedview906"
     showgrid="false"
     inkscape:zoom="8.05"
     inkscape:cx="32"
     inkscape:cy="32"
     inkscape:window-x="-8"
     inkscape:window-y="-8"
     inkscape:window-maximized="1"
     inkscape:current-layer="layer2"
     inkscape:document-rotation="0" /><g
     inkscape:groupmode="layer"
     id="layer1"
     inkscape:label="Background"
     style="display:none"
     sodipodi:insensitive="true"><rect
       style="fill:#0c0c0c;fill-opacity:1;stroke-width:19.6133"
       id="rect833"
       width="64"
       height="64"
       x="0"
       y="0" /></g><g
     inkscape:groupmode="layer"
     id="layer2"
     inkscape:label="Icon"
     style="display:inline"
     sodipodi:insensitive="true"><path
       d="M 60.187234,23.148936 64,16.476596 H 51.47234 V 0 H 6.9446809 C 5.0382979,0 3.4042553,0.6808511 2.0425532,2.0425532 0.6808511,3.4042553 0,5.1744681 0,6.9446809 V 57.055319 C 0,60.868085 3.1319149,64 6.9446809,64 H 51.47234 V 29.821277 H 64 Z M 11.846809,58.553191 H 9.1234043 V 16.612766 h 2.7234047 z m 19.063829,-9.804255 c -6.80851,0 -12.255319,-5.446808 -12.255319,-12.255319 0,-6.808511 5.446809,-12.255319 12.255319,-12.255319 6.808511,0 12.255319,5.446808 12.255319,12.255319 0,6.808511 -5.446808,12.255319 -12.255319,12.255319 z M 48.748936,5.5829787 H 7.7617021 V 8.306383 H 48.748936 v 2.859574 H 6.9446809 c -2.3148937,0 -4.2212766,-1.9063825 -4.2212766,-4.2212761 0,-1.0893618 0.4085106,-2.1787235 1.2255319,-2.9957447 C 4.7659574,3.1319149 5.8553191,2.7234043 6.9446809,2.7234043 H 48.748936 Z"
       id="path901"
       style="fill:#ffffff;fill-opacity:1;stroke-width:1.3617" /></g></svg>
