<?xml version="1.0" encoding="UTF-8" standalone="no"?>
<svg
   xmlns:dc="http://purl.org/dc/elements/1.1/"
   xmlns:cc="http://creativecommons.org/ns#"
   xmlns:rdf="http://www.w3.org/1999/02/22-rdf-syntax-ns#"
   xmlns:svg="http://www.w3.org/2000/svg"
   xmlns="http://www.w3.org/2000/svg"
   xmlns:sodipodi="http://sodipodi.sourceforge.net/DTD/sodipodi-0.dtd"
   xmlns:inkscape="http://www.inkscape.org/namespaces/inkscape"
   enable-background="new 0 0 141.732 141.732"
   height="64"
   id="Livello_1"
   version="1.1"
   viewBox="0 0 64.000002 64.000002"
   width="64"
   xml:space="preserve"
   sodipodi:docname="BookTakeLight.svg"
   inkscape:version="1.0.1 (3bc2e813f5, 2020-09-07)"
   inkscape:export-filename="C:\Users\yusuf\Downloads\İkonlar\kitap_teslim_al.png"
   inkscape:export-xdpi="96"
   inkscape:export-ydpi="96"><metadata
     id="metadata353"><rdf:RDF><cc:Work
         rdf:about=""><dc:format>image/svg+xml</dc:format><dc:type
           rdf:resource="http://purl.org/dc/dcmitype/StillImage" /><dc:title></dc:title></cc:Work></rdf:RDF></metadata><defs
     id="defs351" /><sodipodi:namedview
     pagecolor="#ffffff"
     bordercolor="#666666"
     borderopacity="1"
     objecttolerance="10"
     gridtolerance="10"
     guidetolerance="10"
     inkscape:pageopacity="0"
     inkscape:pageshadow="2"
     inkscape:window-width="1366"
     inkscape:window-height="705"
     id="namedview349"
     showgrid="false"
     inkscape:zoom="8.05"
     inkscape:cx="32"
     inkscape:cy="32"
     inkscape:window-x="-8"
     inkscape:window-y="-8"
     inkscape:window-maximized="1"
     inkscape:current-layer="layer2"
     inkscape:document-rotation="0" /><g
     inkscape:groupmode="layer"
     id="layer1"
     inkscape:label="Background"
     style="display:none"
     sodipodi:insensitive="true"><rect
       style="fill:#202021;fill-opacity:1;stroke-width:5.17909"
       id="rect20"
       width="64"
       height="64"
       x="0"
       y="0" /></g><g
     inkscape:groupmode="layer"
     id="layer2"
     inkscape:label="Icon"
     style="display:inline"
     sodipodi:insensitive="true"><g
       id="g697"
       style="fill:#202021;fill-opacity:1"
       transform="matrix(0.13559322,0,0,0.13559322,-3.2481874,-2.7118643)"><g
         id="Livello_1_1_"
         style="fill:#202021;fill-opacity:1" /><g
         id="g201"
         transform="translate(-1.1580953,79.505174)"
         style="fill:#202021;fill-opacity:1"><rect
           height="203.703"
           width="45.417999"
           x="25.158001"
           y="205.707"
           id="rect116"
           style="fill:#202021;fill-opacity:1" /><path
           d="m 465.367,297.479 -2.427,-0.135 c -1.33,-0.074 -2.66,-0.148 -3.99,-0.229 -35.473,11.117 -78.377,22.59 -128.239,24.055 l -61.324,27.256 c -0.516,0.229 -1.068,0.344 -1.625,0.344 -0.328,0 -0.657,-0.039 -0.979,-0.121 L 162.244,322.243 c -2.142,-0.541 -3.44,-2.717 -2.899,-4.857 0.541,-2.143 2.715,-3.439 4.858,-2.898 l 103.197,26.065 57.286,-25.459 c -7.828,-19.199 -19.438,-32.342 -35.404,-40.105 -18.312,-5.475 -35.521,-5.15 -51.396,-3.977 -5.172,0.379 -8.373,1.064 -10.945,1.615 -8.15,1.744 -10.454,0.91 -22.396,-8.131 -5.847,-4.424 -11.291,-9.387 -16.556,-14.186 -2.366,-2.158 -4.807,-4.383 -7.245,-6.521 -20.215,-6.348 -34.635,-1.525 -52.829,4.563 -4.227,1.414 -8.597,2.875 -13.248,4.262 l -33.014,9.834 c -1.073,0.318 -2.171,0.164 -3.078,-0.338 v 93.889 l 171.979,52.74 c 17.694,5.912 34.37,4.85 51.08,-3.225 0.111,-0.053 0.225,-0.102 0.341,-0.145 l 69.562,-25.979 c 36.799,-13.744 73.603,-27.49 110.416,-41.232 5.647,-12.816 6.431,-24.211 2.114,-31.432 -3.357,-5.617 -9.649,-8.726 -18.7,-9.247 z"
           id="path120"
           style="fill:#202021;fill-opacity:1" /></g><path
         d="M 479.52733,119.47135 495.91086,90.800191 H 442.0793 V 20 H 250.74323 c -8.19175,0 -15.21326,2.925631 -21.06452,8.776879 -5.85125,5.851261 -8.77688,13.457893 -8.77688,21.064524 V 265.16763 c 0,16.38351 13.45789,29.8414 29.8414,29.8414 H 442.0793 V 148.14251 h 53.83156 z M 271.80776,271.60401 H 260.10525 V 91.385321 h 11.70251 z m 81.91758,-42.12905 c -29.25628,0 -52.6613,-23.40502 -52.6613,-52.6613 0,-29.25628 23.40502,-52.66131 52.6613,-52.66131 29.25628,0 52.66131,23.40503 52.66131,52.66131 0,29.25628 -23.40503,52.6613 -52.66131,52.6613 z M 430.37679,43.990155 h -176.1228 v 11.70251 h 176.1228 V 67.980297 H 250.74323 c -9.94714,0 -18.13889,-8.191755 -18.13889,-18.138894 0,-4.681001 1.75538,-9.362002 5.26614,-12.872756 3.51075,-3.510754 8.19175,-5.266138 12.87275,-5.266138 h 179.63356 z"
         id="path634"
         style="fill:#202021;fill-opacity:1;stroke-width:5.85126" /></g></g></svg>
