<?xml version="1.0" encoding="UTF-8" standalone="no"?>
<svg
   xmlns:dc="http://purl.org/dc/elements/1.1/"
   xmlns:cc="http://creativecommons.org/ns#"
   xmlns:rdf="http://www.w3.org/1999/02/22-rdf-syntax-ns#"
   xmlns:svg="http://www.w3.org/2000/svg"
   xmlns="http://www.w3.org/2000/svg"
   xmlns:sodipodi="http://sodipodi.sourceforge.net/DTD/sodipodi-0.dtd"
   xmlns:inkscape="http://www.inkscape.org/namespaces/inkscape"
   id="Icons"
   version="1.1"
   viewBox="0 0 64 64"
   xml:space="preserve"
   sodipodi:docname="BookRemoveLight.svg"
   inkscape:version="1.0.1 (3bc2e813f5, 2020-09-07)"
   width="64"
   height="64"
   inkscape:export-filename="C:\Users\yusuf\Downloads\İkonlar\kitap_kaldır.png"
   inkscape:export-xdpi="96"
   inkscape:export-ydpi="96"><metadata
     id="metadata279"><rdf:RDF><cc:Work
         rdf:about=""><dc:format>image/svg+xml</dc:format><dc:type
           rdf:resource="http://purl.org/dc/dcmitype/StillImage" /><dc:title></dc:title></cc:Work></rdf:RDF></metadata><defs
     id="defs277" /><sodipodi:namedview
     pagecolor="#ffffff"
     bordercolor="#666666"
     borderopacity="1"
     objecttolerance="10"
     gridtolerance="10"
     guidetolerance="10"
     inkscape:pageopacity="0"
     inkscape:pageshadow="2"
     inkscape:window-width="1366"
     inkscape:window-height="705"
     id="namedview275"
     showgrid="false"
     inkscape:zoom="8.05"
     inkscape:cx="32"
     inkscape:cy="32"
     inkscape:window-x="-8"
     inkscape:window-y="-8"
     inkscape:window-maximized="1"
     inkscape:current-layer="layer2"
     inkscape:document-rotation="0" /><style
     type="text/css"
     id="style264">
	.st0{fill:#FFFFFF;}
</style><g
     inkscape:groupmode="layer"
     id="layer1"
     inkscape:label="Background"
     style="display:none"
     sodipodi:insensitive="true"><rect
       style="fill:#202021;fill-opacity:1;stroke-width:7.78464"
       id="rect19"
       width="64"
       height="64"
       x="0"
       y="0" /></g><g
     inkscape:groupmode="layer"
     id="layer2"
     inkscape:label="Icon"
     sodipodi:insensitive="true"><g
       id="g838"
       transform="matrix(2.1333333,0,0,2.1333333,-7.466666,-4.2666661)"
       style="fill:#202021;fill-opacity:1"><path
         d="m 24,16 c -4.4,0 -8,3.6 -8,8 0,4.4 3.6,8 8,8 4.4,0 8,-3.6 8,-8 0,-4.4 -3.6,-8 -8,-8 z m 3,9 c -6,0 0,0 -6,0 -0.6,0 -1,-0.4 -1,-1 0,-0.6 0.4,-1 1,-1 6,0 1.113784,0 6,0 0.6,0 1,0.4 1,1 0,0.6 -0.4,1 -1,1 z"
         id="path266"
         sodipodi:nodetypes="sssssccsccsc"
         style="fill:#202021;fill-opacity:1" /><path
         d="m 14,24 c 0,-5.5 4.5,-10 10,-10 1,0 2.1,0.2 3,0.5 V 9 C 27,8.4 26.6,8 26,8 H 11 9 C 7.9,8 7,7.1 7,6 7,4.9 7.9,4 9,4 H 26 C 26.6,4 27,3.6 27,3 27,2.4 26.6,2 26,2 H 9 C 6.8,2 5,3.8 5,6 v 20 c 0,2.2 1.8,4 4,4 h 2 5 c -1.2,-1.7 -2,-3.7 -2,-6 z"
         id="path268"
         style="fill:#202021;fill-opacity:1" /><g
         id="g272"
         style="fill:#202021;fill-opacity:1"><path
           d="M 26,7 H 9 C 8.4,7 8,6.6 8,6 8,5.4 8.4,5 9,5 h 17 c 0.6,0 1,0.4 1,1 0,0.6 -0.4,1 -1,1 z"
           id="path270"
           style="fill:#202021;fill-opacity:1" /></g></g></g></svg>
