<?xml version="1.0" encoding="UTF-8" standalone="no"?>
<svg
   xmlns:dc="http://purl.org/dc/elements/1.1/"
   xmlns:cc="http://creativecommons.org/ns#"
   xmlns:rdf="http://www.w3.org/1999/02/22-rdf-syntax-ns#"
   xmlns:svg="http://www.w3.org/2000/svg"
   xmlns="http://www.w3.org/2000/svg"
   xmlns:sodipodi="http://sodipodi.sourceforge.net/DTD/sodipodi-0.dtd"
   xmlns:inkscape="http://www.inkscape.org/namespaces/inkscape"
   id="Icons"
   version="1.1"
   viewBox="0 0 64 64"
   xml:space="preserve"
   sodipodi:docname="BookEditLight.svg"
   inkscape:version="1.0.1 (3bc2e813f5, 2020-09-07)"
   width="64"
   height="64"
   inkscape:export-filename="C:\Users\yusuf\Downloads\İkonlar\kitap_düzenle.png"
   inkscape:export-xdpi="96"
   inkscape:export-ydpi="96"><metadata
     id="metadata279"><rdf:RDF><cc:Work
         rdf:about=""><dc:format>image/svg+xml</dc:format><dc:type
           rdf:resource="http://purl.org/dc/dcmitype/StillImage" /><dc:title></dc:title></cc:Work></rdf:RDF></metadata><defs
     id="defs277" /><sodipodi:namedview
     pagecolor="#ffffff"
     bordercolor="#666666"
     borderopacity="1"
     objecttolerance="10"
     gridtolerance="10"
     guidetolerance="10"
     inkscape:pageopacity="0"
     inkscape:pageshadow="2"
     inkscape:window-width="1366"
     inkscape:window-height="705"
     id="namedview275"
     showgrid="false"
     inkscape:zoom="8.05"
     inkscape:cx="32"
     inkscape:cy="32"
     inkscape:window-x="-8"
     inkscape:window-y="-8"
     inkscape:window-maximized="1"
     inkscape:current-layer="layer2"
     inkscape:document-rotation="0" /><style
     type="text/css"
     id="style264">
	.st0{fill:#FFFFFF;}
</style><g
     inkscape:groupmode="layer"
     id="layer1"
     inkscape:label="Background"
     style="display:none"
     sodipodi:insensitive="true"><rect
       style="display:inline;fill:#202021;fill-opacity:1;stroke-width:5.96343"
       id="rect857"
       width="64"
       height="64"
       x="0"
       y="0" /></g><g
     inkscape:groupmode="layer"
     id="layer2"
     inkscape:label="Icon"
     style="display:inline"
     sodipodi:insensitive="true"><g
       id="Layer_1"
       transform="matrix(0.06734007,0,0,0.06734007,26.494274,29.694273)" /><g
       id="g888"
       style="fill:#202021;fill-opacity:1"
       transform="translate(-3.9055e-4)"><path
         d="m 22.399998,46.933329 c 0,-11.733332 9.599999,-21.333331 21.333331,-21.333331 2.133333,0 4.48,0.426666 6.399999,1.066666 V 14.933332 c 0,-1.28 -0.853333,-2.133333 -2.133333,-2.133333 H 15.999999 11.733333 c -2.3466669,0 -4.2666667,-1.92 -4.2666667,-4.2666662 0,-2.3466664 1.9199998,-4.2666662 4.2666667,-4.2666662 h 36.266662 c 1.28,0 2.133333,-0.8533332 2.133333,-2.1333331 C 50.133328,0.85333364 49.279995,4e-7 47.999995,4e-7 H 11.733333 C 7.0399997,4e-7 3.2000001,3.84 3.2000001,8.5333328 V 51.199995 c 0,4.693333 3.8399996,8.533332 8.5333329,8.533332 h 4.266666 10.666665 c -2.56,-3.626666 -4.266666,-7.893332 -4.266666,-12.799998 z"
         id="path268"
         style="fill:#202021;fill-opacity:1;stroke-width:2.13333" /><g
         id="g272"
         style="fill:#202021;fill-opacity:1"
         transform="matrix(2.1333331,0,0,2.1333331,-7.4666654,-4.2666658)"><path
           d="M 26,7 H 9 C 8.4,7 8,6.6 8,6 8,5.4 8.4,5 9,5 h 17 c 0.6,0 1,0.4 1,1 0,0.6 -0.4,1 -1,1 z"
           id="path270"
           style="fill:#202021;fill-opacity:1" /></g><path
         id="circle419"
         style="fill:#202021;fill-opacity:1;stroke-width:0.0673402"
         d="M 43.673828,29.867188 A 17.066668,17.066668 0 0 0 26.666016,46.933594 17.066668,17.066668 0 0 0 43.732422,64 17.066668,17.066668 0 0 0 60.800781,46.933594 17.066668,17.066668 0 0 0 43.732422,29.867188 a 17.066668,17.066668 0 0 0 -0.05859,0 z m 5.574219,8.552734 c 0.267491,0 0.5345,0.10286 0.738281,0.30664 l 1.97461,1.970704 c 0.408013,0.406207 0.408012,1.067047 0,1.474609 l -1.578126,1.574219 -3.453124,-3.447266 1.580078,-1.574219 c 0.203781,-0.203782 0.47079,-0.304687 0.738281,-0.304687 z m -3.056641,2.617187 3.451172,3.447266 -9.507812,9.490234 -3.453125,-3.445312 z M 35.9375,51.265625 l 3.451172,3.447266 -4.189453,0.734375 z" /></g></g></svg>
