<?xml version="1.0" encoding="UTF-8" standalone="no"?>
<svg
   xmlns:dc="http://purl.org/dc/elements/1.1/"
   xmlns:cc="http://creativecommons.org/ns#"
   xmlns:rdf="http://www.w3.org/1999/02/22-rdf-syntax-ns#"
   xmlns:svg="http://www.w3.org/2000/svg"
   xmlns="http://www.w3.org/2000/svg"
   xmlns:sodipodi="http://sodipodi.sourceforge.net/DTD/sodipodi-0.dtd"
   xmlns:inkscape="http://www.inkscape.org/namespaces/inkscape"
   id="Icons"
   version="1.1"
   viewBox="0 0 64 64"
   xml:space="preserve"
   sodipodi:docname="BookSearchDark.svg"
   inkscape:version="1.0.1 (3bc2e813f5, 2020-09-07)"
   width="64"
   height="64"
   inkscape:export-filename="C:\Users\yusuf\Downloads\İkonlar\kitap_ara.png"
   inkscape:export-xdpi="96"
   inkscape:export-ydpi="96"><metadata
     id="metadata139"><rdf:RDF><cc:Work
         rdf:about=""><dc:format>image/svg+xml</dc:format><dc:type
           rdf:resource="http://purl.org/dc/dcmitype/StillImage" /><dc:title /></cc:Work></rdf:RDF></metadata><defs
     id="defs137" /><sodipodi:namedview
     pagecolor="#ffffff"
     bordercolor="#666666"
     borderopacity="1"
     objecttolerance="10"
     gridtolerance="10"
     guidetolerance="10"
     inkscape:pageopacity="0"
     inkscape:pageshadow="2"
     inkscape:window-width="1366"
     inkscape:window-height="705"
     id="namedview135"
     showgrid="false"
     inkscape:zoom="8.05"
     inkscape:cx="21.937888"
     inkscape:cy="32"
     inkscape:window-x="-8"
     inkscape:window-y="-8"
     inkscape:window-maximized="1"
     inkscape:current-layer="layer2"
     inkscape:document-rotation="0" /><style
     type="text/css"
     id="style124">
	.st0{fill:#FFFFFF;}
</style><g
     inkscape:groupmode="layer"
     id="layer1"
     inkscape:label="Background"
     style="display:none"
     sodipodi:insensitive="true"><rect
       style="fill:#202021;fill-opacity:1;stroke-width:3.23703"
       id="rect19"
       width="64"
       height="64"
       x="0"
       y="0" /></g><g
     inkscape:groupmode="layer"
     id="layer2"
     inkscape:label="Icon"
     style="display:inline"
     sodipodi:insensitive="true"><g
       id="g838"
       transform="matrix(2.1262458,0,0,2.1262458,-7.323368,-4.2524909)"
       style="fill:#ffffff;fill-opacity:1"><g
         id="g128"
         style="fill:#ffffff;fill-opacity:1"><path
           d="M 26,7 H 9 C 8.4,7 8,6.6 8,6 8,5.4 8.4,5 9,5 h 17 c 0.6,0 1,0.4 1,1 0,0.6 -0.4,1 -1,1 z"
           id="path126"
           style="fill:#ffffff;fill-opacity:1" /></g><path
         d="m 31.7,30.1 -2.8,-2.8 c 0.7,-1 1,-2.1 1,-3.3 0,-3.3 -2.7,-6 -5.9,-6 -3.2,0 -6,2.7 -6,6 0,3.3 2.7,6 5.9,6 1.2,0 2.4,-0.4 3.3,-1 l 2.8,2.8 c 0.4,0.4 1.2,0.4 1.6,0 0.5,-0.5 0.5,-1.3 0.1,-1.7 z"
         id="path130"
         style="fill:#ffffff;fill-opacity:1" /><path
         d="m 16,24 c 0,-4.4 3.6,-8 7.9,-8 1.1,0 2.1,0.2 3.1,0.6 V 9 C 27,8.4 26.6,8 26,8 H 11 9 C 7.9,8 7,7.1 7,6 7,4.9 7.9,4 9,4 H 26 C 26.6,4 27,3.6 27,3 27,2.4 26.6,2 26,2 H 9 C 6.8,2 5,3.8 5,6 v 20 c 0,2.2 1.8,4 4,4 h 2 7.8 C 17.1,28.5 16,26.4 16,24 Z"
         id="path132"
         style="fill:#ffffff;fill-opacity:1" /></g></g></svg>
