<?xml version="1.0" encoding="UTF-8" standalone="no"?>
<svg
   xmlns:dc="http://purl.org/dc/elements/1.1/"
   xmlns:cc="http://creativecommons.org/ns#"
   xmlns:rdf="http://www.w3.org/1999/02/22-rdf-syntax-ns#"
   xmlns:svg="http://www.w3.org/2000/svg"
   xmlns="http://www.w3.org/2000/svg"
   xmlns:sodipodi="http://sodipodi.sourceforge.net/DTD/sodipodi-0.dtd"
   xmlns:inkscape="http://www.inkscape.org/namespaces/inkscape"
   enable-background="new 0 0 72 58"
   height="64"
   id="Layer_1"
   version="1.1"
   viewBox="0 0 64 64"
   width="64"
   xml:space="preserve"
   sodipodi:docname="PersonRemoveDark.svg"
   inkscape:version="1.0.1 (3bc2e813f5, 2020-09-07)"
   inkscape:export-filename="C:\Users\yusuf\Downloads\İkonlar\kişi_kaldır.png"
   inkscape:export-xdpi="96"
   inkscape:export-ydpi="96"><metadata
     id="metadata271"><rdf:RDF><cc:Work
         rdf:about=""><dc:format>image/svg+xml</dc:format><dc:type
           rdf:resource="http://purl.org/dc/dcmitype/StillImage" /><dc:title /></cc:Work></rdf:RDF></metadata><defs
     id="defs269" /><sodipodi:namedview
     pagecolor="#ffffff"
     bordercolor="#666666"
     borderopacity="1"
     objecttolerance="10"
     gridtolerance="10"
     guidetolerance="10"
     inkscape:pageopacity="0"
     inkscape:pageshadow="2"
     inkscape:window-width="1366"
     inkscape:window-height="705"
     id="namedview267"
     showgrid="false"
     inkscape:zoom="4.44"
     inkscape:cx="37.784656"
     inkscape:cy="36.626711"
     inkscape:window-x="-8"
     inkscape:window-y="-8"
     inkscape:window-maximized="1"
     inkscape:current-layer="layer2"
     inkscape:document-rotation="0" /><g
     inkscape:groupmode="layer"
     id="layer1"
     inkscape:label="Background"
     sodipodi:insensitive="true"
     style="display:none"><rect
       style="fill:#202021;fill-opacity:1;stroke-width:9.10041"
       id="rect16"
       width="64"
       height="64"
       x="0"
       y="0" /></g><g
     inkscape:groupmode="layer"
     id="layer2"
     inkscape:label="Icon"
     sodipodi:insensitive="true"><g
       id="g835"
       transform="matrix(0.88948188,0,0,0.88948188,-0.04269525,6.2050255)"
       style="fill:#ffffff;fill-opacity:1"><path
         d="M 67.693,37 C 44.306,37 52.72493,36.561539 44.306,37 42,37 40,38.857 40,41.164 v 1.671 C 40,45.141 42,47 44.306,47 67.693,47 59.274844,47.438473 67.693,47 70,47 72,45.141 72,42.835 V 41.164 C 72,38.857 70,37 67.693,37 Z"
         fill="#231f20"
         id="path258"
         sodipodi:nodetypes="ccssccssc"
         style="fill:#ffffff;fill-opacity:1" /><circle
         cx="31.5"
         cy="13.5"
         fill="#231f20"
         r="13.5"
         id="circle260"
         style="fill:#ffffff;fill-opacity:1" /><path
         d="M 46,52 H 44.306 C 39.175,52 35,47.889 35,42.835 V 41.164 C 35,36.111 39.175,32 44.306,32 H 46 V 31 H 16.995 C 9.182,36.436 3.059,46.132 0.048,58 h 47 C 46.382,56.711 46,55.247 46,53.693 Z"
         fill="#231f20"
         id="path262"
         style="fill:#ffffff;fill-opacity:1" /></g></g></svg>
