<?xml version="1.0" encoding="UTF-8" standalone="no"?>
<svg
   xmlns:dc="http://purl.org/dc/elements/1.1/"
   xmlns:cc="http://creativecommons.org/ns#"
   xmlns:rdf="http://www.w3.org/1999/02/22-rdf-syntax-ns#"
   xmlns:svg="http://www.w3.org/2000/svg"
   xmlns="http://www.w3.org/2000/svg"
   xmlns:sodipodi="http://sodipodi.sourceforge.net/DTD/sodipodi-0.dtd"
   xmlns:inkscape="http://www.inkscape.org/namespaces/inkscape"
   enable-background="new 0 0 72 58"
   height="64"
   id="Layer_1"
   version="1.1"
   viewBox="0 0 64 64"
   width="64"
   xml:space="preserve"
   sodipodi:docname="PersonSearchLight.svg"
   inkscape:version="1.0.1 (3bc2e813f5, 2020-09-07)"
   inkscape:export-filename="C:\Users\yusuf\Downloads\İkonlar\kişi_ara.png"
   inkscape:export-xdpi="96"
   inkscape:export-ydpi="96"><metadata
     id="metadata271"><rdf:RDF><cc:Work
         rdf:about=""><dc:format>image/svg+xml</dc:format><dc:type
           rdf:resource="http://purl.org/dc/dcmitype/StillImage" /><dc:title></dc:title></cc:Work></rdf:RDF></metadata><defs
     id="defs269" /><sodipodi:namedview
     pagecolor="#ffffff"
     bordercolor="#666666"
     borderopacity="1"
     objecttolerance="10"
     gridtolerance="10"
     guidetolerance="10"
     inkscape:pageopacity="0"
     inkscape:pageshadow="2"
     inkscape:window-width="1366"
     inkscape:window-height="705"
     id="namedview267"
     showgrid="false"
     inkscape:zoom="8.05"
     inkscape:cx="39.329193"
     inkscape:cy="32"
     inkscape:window-x="-8"
     inkscape:window-y="-8"
     inkscape:window-maximized="1"
     inkscape:current-layer="layer12"
     inkscape:document-rotation="0" /><g
     inkscape:groupmode="layer"
     id="layer11"
     inkscape:label="Background"
     style="display:none"
     sodipodi:insensitive="true"><rect
       style="fill:#202020;fill-opacity:1;stroke-width:7.29917"
       id="rect1614"
       width="64"
       height="64"
       x="0"
       y="0" /></g><g
     inkscape:groupmode="layer"
     id="layer12"
     inkscape:label="Icon"
     sodipodi:insensitive="true"><g
       id="g835"
       transform="matrix(0.88948187,0,0,0.88948187,-0.04269504,6.2050257)"
       style="fill:#202021;fill-opacity:1"><circle
         cx="31.5"
         cy="13.5"
         fill="#231f20"
         r="13.5"
         id="circle260"
         style="fill:#202021;fill-opacity:1" /><path
         d="M 46,52 H 44.306 C 39.175,52 35,47.889 35,42.835 V 41.164 C 35,36.111 39.175,32 44.306,32 H 46 V 31 H 16.995 C 9.182,36.436 3.059,46.132 0.048,58 h 47 C 46.382,56.711 46,55.247 46,53.693 Z"
         fill="#231f20"
         id="path262"
         style="fill:#202021;fill-opacity:1" /><path
         d="M 71.401813,53.886525 65.597061,48.127659 C 67.04825,46.070921 67.670188,43.808511 67.670188,41.340424 67.670188,34.553193 62.072752,29 55.438749,29 48.80475,29 43,34.553193 43,41.340424 c 0,6.787235 5.597439,12.340428 12.231437,12.340428 2.487751,0 4.975501,-0.822696 6.841315,-2.056738 l 5.804749,5.758865 c 0.829248,0.822695 2.487749,0.822695 3.316999,0 1.036563,-1.028369 1.036563,-2.673758 0.207313,-3.496454 z"
         id="path463"
         style="fill:#202021;fill-opacity:1;stroke-width:2.06491" /></g></g></svg>
