<?xml version="1.0" encoding="UTF-8" standalone="no"?>
<svg
   xmlns:dc="http://purl.org/dc/elements/1.1/"
   xmlns:cc="http://creativecommons.org/ns#"
   xmlns:rdf="http://www.w3.org/1999/02/22-rdf-syntax-ns#"
   xmlns:svg="http://www.w3.org/2000/svg"
   xmlns="http://www.w3.org/2000/svg"
   xmlns:sodipodi="http://sodipodi.sourceforge.net/DTD/sodipodi-0.dtd"
   xmlns:inkscape="http://www.inkscape.org/namespaces/inkscape"
   enable-background="new 0 0 72 58"
   height="64"
   id="Layer_1"
   version="1.1"
   viewBox="0 0 64 64"
   width="64"
   xml:space="preserve"
   sodipodi:docname="PersonEditLight.svg"
   inkscape:version="1.0.1 (3bc2e813f5, 2020-09-07)"
   inkscape:export-filename="C:\Users\yusuf\Downloads\İkonlar\kişi_düzenle.png"
   inkscape:export-xdpi="96"
   inkscape:export-ydpi="96"><metadata
     id="metadata271"><rdf:RDF><cc:Work
         rdf:about=""><dc:format>image/svg+xml</dc:format><dc:type
           rdf:resource="http://purl.org/dc/dcmitype/StillImage" /><dc:title></dc:title></cc:Work></rdf:RDF></metadata><defs
     id="defs269" /><sodipodi:namedview
     pagecolor="#ffffff"
     bordercolor="#666666"
     borderopacity="1"
     objecttolerance="10"
     gridtolerance="10"
     guidetolerance="10"
     inkscape:pageopacity="0"
     inkscape:pageshadow="2"
     inkscape:window-width="1366"
     inkscape:window-height="705"
     id="namedview267"
     showgrid="false"
     inkscape:zoom="4.025"
     inkscape:cx="37.859962"
     inkscape:cy="31.83545"
     inkscape:window-x="-8"
     inkscape:window-y="-8"
     inkscape:window-maximized="1"
     inkscape:current-layer="layer10"
     inkscape:document-rotation="0" /><g
     id="Layer_1-6"
     transform="matrix(0.0598115,0,0,0.0598115,65.996282,33.894612)" /><g
     inkscape:groupmode="layer"
     id="layer9"
     inkscape:label="Background"
     style="display:none"
     sodipodi:insensitive="true"><rect
       style="fill:#202021;fill-opacity:1;stroke-width:6.86019"
       id="rect1605"
       width="64"
       height="64"
       x="0"
       y="0" /></g><g
     inkscape:groupmode="layer"
     id="layer10"
     inkscape:label="Icon"
     sodipodi:insensitive="true"><g
       id="g1597"
       style="fill:#202021;fill-opacity:1"><circle
         cx="27.966656"
         cy="18.217628"
         fill="#231f20"
         r="12.004002"
         id="circle260"
         style="fill:#202021;fill-opacity:1;stroke-width:0.889185" /><path
         d="m 40.859843,52.451262 h -1.50628 c -4.56241,0 -8.274759,-3.655441 -8.274759,-8.149384 V 42.81605 c 0,-4.493053 3.712349,-8.148494 8.274759,-8.148494 h 1.50628 V 33.778371 H 15.069023 C 8.1218183,38.611982 2.6773368,47.233522 -1.4755262e-7,57.786373 H 41.791709 c -0.592198,-1.146159 -0.931866,-2.447927 -0.931866,-3.829721 z"
         fill="#231f20"
         id="path262"
         style="fill:#202021;fill-opacity:1;stroke-width:0.889185" /><path
         id="circle419"
         style="fill:#202021;fill-opacity:1;stroke-width:0.0491186"
         d="M 51.550781,31.355469 A 12.448594,12.448594 0 0 0 39.103516,43.804688 12.448594,12.448594 0 0 0 51.550781,56.253906 12.448594,12.448594 0 0 0 64,43.804688 12.448594,12.448594 0 0 0 51.550781,31.355469 Z m 4.023438,6.240234 c 0.19511,0 0.390423,0.07402 0.539062,0.222656 l 1.439453,1.4375 c 0.29761,0.296291 0.29761,0.778892 0,1.076172 l -1.152343,1.148438 -2.517579,-2.513672 1.152344,-1.148438 c 0.14864,-0.148645 0.343952,-0.222656 0.539063,-0.222656 z m -2.230469,1.908203 2.517578,2.513672 -6.935547,6.923828 -2.517578,-2.513672 z m -7.478516,7.460938 2.517578,2.513672 -3.05664,0.537109 z" /></g></g></svg>
