<?xml version="1.0" encoding="UTF-8" standalone="no"?>
<svg
   xmlns:dc="http://purl.org/dc/elements/1.1/"
   xmlns:cc="http://creativecommons.org/ns#"
   xmlns:rdf="http://www.w3.org/1999/02/22-rdf-syntax-ns#"
   xmlns:svg="http://www.w3.org/2000/svg"
   xmlns="http://www.w3.org/2000/svg"
   xmlns:sodipodi="http://sodipodi.sourceforge.net/DTD/sodipodi-0.dtd"
   xmlns:inkscape="http://www.inkscape.org/namespaces/inkscape"
   viewBox="0 0 64 64"
   version="1.1"
   id="svg10"
   sodipodi:docname="ReportDark.svg"
   width="64"
   height="64"
   inkscape:version="1.0.1 (3bc2e813f5, 2020-09-07)">
  <metadata
     id="metadata16">
    <rdf:RDF>
      <cc:Work
         rdf:about="">
        <dc:format>image/svg+xml</dc:format>
        <dc:type
           rdf:resource="http://purl.org/dc/dcmitype/StillImage" />
        <dc:title></dc:title>
      </cc:Work>
    </rdf:RDF>
  </metadata>
  <defs
     id="defs14" />
  <sodipodi:namedview
     pagecolor="#ffffff"
     bordercolor="#666666"
     borderopacity="1"
     objecttolerance="10"
     gridtolerance="10"
     guidetolerance="10"
     inkscape:pageopacity="0"
     inkscape:pageshadow="2"
     inkscape:window-width="1366"
     inkscape:window-height="705"
     id="namedview12"
     showgrid="false"
     inkscape:zoom="8.05"
     inkscape:cx="21.937888"
     inkscape:cy="32"
     inkscape:window-x="-8"
     inkscape:window-y="-8"
     inkscape:window-maximized="1"
     inkscape:current-layer="svg10"
     inkscape:document-rotation="0" />
  <g
     inkscape:groupmode="layer"
     id="layer2"
     inkscape:label="Background"
     sodipodi:insensitive="true"
     style="display:none">
    <rect
       style="fill:#121212;fill-opacity:1;stroke-width:4.82357"
       id="rect843"
       width="64"
       height="64"
       x="0"
       y="0" />
  </g>
  <g
     inkscape:groupmode="layer"
     id="layer1"
     inkscape:label="Icon"
     sodipodi:insensitive="true" />
  <g
     id="g10"
     transform="matrix(0.26092794,0,0,0.26092794,-1.411223,-1.3987763)"
     style="fill:#ffffff">
    <path
       d="m 29.4,190.9 c 2.8,0 5,-2.2 5,-5 v -52.3 l 30.2,-16.2 v 42.9 c 0,2.8 2.2,5 5,5 2.8,0 5,-2.2 5,-5 v -59.6 l -50.1,26.9 v 58.3 c -0.1,2.7 2.1,5 4.9,5 z"
       id="path2"
       style="fill:#ffffff" />
    <path
       d="m 89.6,153 c 2.8,0 5,-2.2 5,-5 V 59.6 l 30.2,-16.2 v 143.8 c 0,2.8 2.2,5 5,5 2.8,0 5,-2.2 5,-5 V 26.7 L 84.6,53.6 V 148 c 0,2.7 2.2,5 5,5 z"
       id="path4"
       style="fill:#ffffff" />
    <path
       d="m 149.8,185.7 c 2.8,0 5,-2.2 5,-5 V 85.4 L 185,69.2 v 86.3 c 0,2.8 2.2,5 5,5 2.8,0 5,-2.2 5,-5 v -103 l -50.1,26.9 v 101.3 c -0.1,2.8 2.2,5 4.9,5 z"
       id="path6"
       style="fill:#ffffff" />
    <path
       d="m 250,146.2 c -0.9,-1.5 -2.5,-2.5 -4.3,-2.5 h -34.5 c -1.8,0 -3.4,1 -4.3,2.5 -0.9,1.5 -0.9,3.4 0,5 l 6.2,10.7 -27.5,16.7 c -4.2,2.6 -8.3,5.1 -12.5,7.7 -3,1.9 -6,3.7 -8.9,5.6 -7.8,5 -14.7,9.5 -21.1,13.9 -3.3,2.2 -6.5,4.5 -9.8,6.7 L 88.5,168.7 7.7,220.1 c -2.3,1.5 -3,4.6 -1.5,6.9 1,1.5 2.6,2.3 4.2,2.3 0.9,0 1.8,-0.3 2.7,-0.8 l 74,-47.1 45.2,44.1 6.1,-4.4 c 3.4,-2.4 6.8,-4.8 10.3,-7.1 6.3,-4.3 13.1,-8.7 20.9,-13.7 2.9,-1.9 5.9,-3.7 8.8,-5.6 4.1,-2.6 8.3,-5.1 12.4,-7.7 l 25.3,-15.5 2,-1.2 6.1,10.6 c 0.9,1.5 2.5,2.5 4.3,2.5 1.8,0 3.4,-1 4.3,-2.5 L 250.1,151 c 0.8,-1.3 0.8,-3.2 -0.1,-4.8 z m -21.6,22.4 -8.6,-14.9 H 237 Z"
       id="path8"
       style="fill:#ffffff" />
  </g>
</svg>
