<?xml version="1.0" encoding="UTF-8" standalone="no"?>
<svg
   xmlns:dc="http://purl.org/dc/elements/1.1/"
   xmlns:cc="http://creativecommons.org/ns#"
   xmlns:rdf="http://www.w3.org/1999/02/22-rdf-syntax-ns#"
   xmlns:svg="http://www.w3.org/2000/svg"
   xmlns="http://www.w3.org/2000/svg"
   xmlns:sodipodi="http://sodipodi.sourceforge.net/DTD/sodipodi-0.dtd"
   xmlns:inkscape="http://www.inkscape.org/namespaces/inkscape"
   viewBox="0 0 64 64"
   version="1.1"
   id="svg10"
   sodipodi:docname="SignInLight.svg"
   width="64"
   height="64"
   inkscape:version="1.0.1 (3bc2e813f5, 2020-09-07)">
  <metadata
     id="metadata16">
    <rdf:RDF>
      <cc:Work
         rdf:about="">
        <dc:format>image/svg+xml</dc:format>
        <dc:type
           rdf:resource="http://purl.org/dc/dcmitype/StillImage" />
        <dc:title></dc:title>
      </cc:Work>
    </rdf:RDF>
  </metadata>
  <defs
     id="defs14" />
  <sodipodi:namedview
     pagecolor="#ffffff"
     bordercolor="#666666"
     borderopacity="1"
     objecttolerance="10"
     gridtolerance="10"
     guidetolerance="10"
     inkscape:pageopacity="0"
     inkscape:pageshadow="2"
     inkscape:window-width="1366"
     inkscape:window-height="705"
     id="namedview12"
     showgrid="false"
     inkscape:zoom="5.6041667"
     inkscape:cx="67.895911"
     inkscape:cy="40.862454"
     inkscape:window-x="-8"
     inkscape:window-y="-8"
     inkscape:window-maximized="1"
     inkscape:current-layer="layer2" />
  <g
     inkscape:groupmode="layer"
     id="layer2"
     inkscape:label="Background"
     sodipodi:insensitive="true"
     style="display:none">
    <rect
       style="fill:#121212;fill-opacity:1;stroke-width:4.82357"
       id="rect843"
       width="64"
       height="64"
       x="0"
       y="0" />
  </g>
  <g
     id="g8"
     transform="scale(0.66666666)"
     style="fill:#121212;fill-opacity:1">
    <path
       d="m 43.7578,61.7578 a 5.9994,5.9994 0 1 0 8.4844,8.4844 l 18,-18 a 5.9979,5.9979 0 0 0 0,-8.4844 l -18,-18 a 5.9994,5.9994 0 0 0 -8.4844,8.4844 L 51.5156,42 H 6 a 6,6 0 0 0 0,12 h 45.5156 z"
       id="path4"
       style="fill:#121212;fill-opacity:1" />
    <path
       d="M 90,0 H 30 a 5.9966,5.9966 0 0 0 -6,6 v 12 a 6,6 0 0 0 12,0 V 12 H 84 V 84 H 36 v -6 a 6,6 0 0 0 -12,0 v 12 a 5.9966,5.9966 0 0 0 6,6 h 60 a 5.9966,5.9966 0 0 0 6,-6 V 6 A 5.9966,5.9966 0 0 0 90,0 Z"
       id="path6"
       style="fill:#121212;fill-opacity:1" />
  </g>
  <g
     inkscape:groupmode="layer"
     id="layer1"
     inkscape:label="Icon" />
</svg>
