<?xml version="1.0" encoding="UTF-8" standalone="no"?>
<svg
   xmlns:dc="http://purl.org/dc/elements/1.1/"
   xmlns:cc="http://creativecommons.org/ns#"
   xmlns:rdf="http://www.w3.org/1999/02/22-rdf-syntax-ns#"
   xmlns:svg="http://www.w3.org/2000/svg"
   xmlns="http://www.w3.org/2000/svg"
   xmlns:sodipodi="http://sodipodi.sourceforge.net/DTD/sodipodi-0.dtd"
   xmlns:inkscape="http://www.inkscape.org/namespaces/inkscape"
   enable-background="new 0 0 64 64"
   height="64px"
   id="Layer_1"
   version="1.1"
   viewBox="0 0 64 64"
   width="64px"
   xml:space="preserve"
   sodipodi:docname="SignOutDark.svg"
   inkscape:version="1.0.1 (3bc2e813f5, 2020-09-07)"
   inkscape:export-filename="C:\Users\yusuf\Downloads\İkonlar\çıkış_yap.png"
   inkscape:export-xdpi="96"
   inkscape:export-ydpi="96"><metadata
     id="metadata9"><rdf:RDF><cc:Work
         rdf:about=""><dc:format>image/svg+xml</dc:format><dc:type
           rdf:resource="http://purl.org/dc/dcmitype/StillImage" /><dc:title /></cc:Work></rdf:RDF></metadata><defs
     id="defs7" /><sodipodi:namedview
     pagecolor="#ffffff"
     bordercolor="#666666"
     borderopacity="1"
     objecttolerance="10"
     gridtolerance="10"
     guidetolerance="10"
     inkscape:pageopacity="0"
     inkscape:pageshadow="2"
     inkscape:window-width="1366"
     inkscape:window-height="705"
     id="namedview5"
     showgrid="false"
     inkscape:zoom="8.05"
     inkscape:cx="21.937888"
     inkscape:cy="32"
     inkscape:window-x="-8"
     inkscape:window-y="-8"
     inkscape:window-maximized="1"
     inkscape:current-layer="layer2"
     inkscape:document-rotation="0" /><g
     inkscape:groupmode="layer"
     id="layer1"
     inkscape:label="Background"
     style="display:none"
     sodipodi:insensitive="true"><rect
       style="fill:#202021;stroke-width:9.22663"
       id="rect837"
       width="64"
       height="64"
       x="0"
       y="0" /></g><g
     inkscape:groupmode="layer"
     id="layer2"
     inkscape:label="Icon"
     style="display:inline"
     sodipodi:insensitive="true"><path
       d="M 56.826,32 C 56.826,18.311 45.689,7.174 32,7.174 18.311,7.174 7.174,18.311 7.174,32 7.174,45.689 18.311,56.826 32,56.826 45.689,56.826 56.826,45.689 56.826,32 Z M 34.437,31.962 c 0,1.301 -1.054,2.356 -2.356,2.356 -1.301,0 -2.356,-1.055 -2.356,-2.356 V 19.709 c 0,-1.301 1.055,-2.356 2.356,-2.356 1.301,0 2.356,1.054 2.356,2.356 z m 13.594,0.079 c 0,8.839 -7.191,16.03 -16.031,16.03 -8.84,0 -16.031,-7.191 -16.031,-16.03 0,-4.285 1.669,-8.313 4.701,-11.34 0.46,-0.46 1.062,-0.689 1.665,-0.689 0.603,0 1.207,0.23 1.667,0.691 0.92,0.921 0.919,2.412 -0.002,3.332 -2.139,2.138 -3.318,4.981 -3.318,8.006 0,6.24 5.077,11.317 11.318,11.317 6.241,0 11.318,-5.077 11.318,-11.317 0,-3.023 -1.176,-5.865 -3.314,-8.003 -0.92,-0.921 -0.919,-2.412 0.001,-3.333 0.921,-0.921 2.412,-0.919 3.333,0.001 3.026,3.028 4.693,7.054 4.693,11.335 z"
       id="path2"
       style="fill:#ffffff;fill-opacity:1" /></g></svg>
