<?xml version="1.0" encoding="UTF-8" standalone="no"?>
<svg
   xmlns:dc="http://purl.org/dc/elements/1.1/"
   xmlns:cc="http://creativecommons.org/ns#"
   xmlns:rdf="http://www.w3.org/1999/02/22-rdf-syntax-ns#"
   xmlns:svg="http://www.w3.org/2000/svg"
   xmlns="http://www.w3.org/2000/svg"
   xmlns:sodipodi="http://sodipodi.sourceforge.net/DTD/sodipodi-0.dtd"
   xmlns:inkscape="http://www.inkscape.org/namespaces/inkscape"
   viewBox="0 0 64 64"
   version="1.1"
   id="svg22"
   sodipodi:docname="SunDark.svg"
   width="64"
   height="64"
   inkscape:version="1.0.1 (3bc2e813f5, 2020-09-07)"
   inkscape:export-filename="C:\Users\yusuf\Downloads\İkonlar\ışık_açık.png"
   inkscape:export-xdpi="96"
   inkscape:export-ydpi="96">
  <metadata
     id="metadata28">
    <rdf:RDF>
      <cc:Work
         rdf:about="">
        <dc:format>image/svg+xml</dc:format>
        <dc:type
           rdf:resource="http://purl.org/dc/dcmitype/StillImage" />
        <dc:title />
      </cc:Work>
    </rdf:RDF>
  </metadata>
  <defs
     id="defs26" />
  <sodipodi:namedview
     pagecolor="#ffffff"
     bordercolor="#666666"
     borderopacity="1"
     objecttolerance="10"
     gridtolerance="10"
     guidetolerance="10"
     inkscape:pageopacity="0"
     inkscape:pageshadow="2"
     inkscape:window-width="1366"
     inkscape:window-height="705"
     id="namedview24"
     showgrid="false"
     inkscape:zoom="8.05"
     inkscape:cx="32"
     inkscape:cy="32"
     inkscape:window-x="-8"
     inkscape:window-y="-8"
     inkscape:window-maximized="1"
     inkscape:current-layer="layer2"
     inkscape:document-rotation="0" />
  <g
     inkscape:groupmode="layer"
     id="layer2"
     inkscape:label="Background"
     style="display:none"
     sodipodi:insensitive="true">
    <rect
       style="fill:#202020;stroke-width:3.23452"
       id="rect53"
       width="64"
       height="64"
       x="0"
       y="0" />
  </g>
  <g
     inkscape:groupmode="layer"
     id="layer1"
     inkscape:label="Icon"
     sodipodi:insensitive="true">
    <g
       id="g39"
       transform="matrix(3.2,0,0,3.2,-6.4,-6.4)"
       style="fill:#ffffff;fill-opacity:1">
      <circle
         cx="12"
         cy="12"
         fill="#464646"
         r="5"
         id="circle4"
         style="fill:#ffffff;fill-opacity:1" />
      <path
         d="m 21,13 h -1 a 1,1 0 0 1 0,-2 h 1 a 1,1 0 0 1 0,2 z"
         fill="#464646"
         id="path6"
         style="fill:#ffffff;fill-opacity:1" />
      <path
         d="M 4,13 H 3 a 1,1 0 0 1 0,-2 h 1 a 1,1 0 0 1 0,2 z"
         fill="#464646"
         id="path8"
         style="fill:#ffffff;fill-opacity:1" />
      <path
         d="M 17.66,7.34 A 1,1 0 0 1 17,7.05 1,1 0 0 1 17,5.64 l 0.71,-0.71 a 1,1 0 1 1 1.41,1.41 l -0.71,0.71 a 1,1 0 0 1 -0.75,0.29 z"
         fill="#464646"
         id="path10"
         style="fill:#ffffff;fill-opacity:1" />
      <path
         d="m 5.64,19.36 a 1,1 0 0 1 -0.71,-0.29 1,1 0 0 1 0,-1.41 L 5.64,17 a 1,1 0 0 1 1.41,1.41 l -0.71,0.71 a 1,1 0 0 1 -0.7,0.24 z"
         fill="#464646"
         id="path12"
         style="fill:#ffffff;fill-opacity:1" />
      <path
         d="M 12,5 A 1,1 0 0 1 11,4 V 3 a 1,1 0 0 1 2,0 v 1 a 1,1 0 0 1 -1,1 z"
         fill="#464646"
         id="path14"
         style="fill:#ffffff;fill-opacity:1" />
      <path
         d="m 12,22 a 1,1 0 0 1 -1,-1 v -1 a 1,1 0 0 1 2,0 v 1 a 1,1 0 0 1 -1,1 z"
         fill="#464646"
         id="path16"
         style="fill:#ffffff;fill-opacity:1" />
      <path
         d="M 6.34,7.34 A 1,1 0 0 1 5.64,7.05 L 4.93,6.34 A 1,1 0 0 1 6.34,4.93 l 0.71,0.71 a 1,1 0 0 1 0,1.41 1,1 0 0 1 -0.71,0.29 z"
         fill="#464646"
         id="path18"
         style="fill:#ffffff;fill-opacity:1" />
      <path
         d="m 18.36,19.36 a 1,1 0 0 1 -0.7,-0.29 L 17,18.36 A 1,1 0 0 1 18.36,17 l 0.71,0.71 a 1,1 0 0 1 0,1.41 1,1 0 0 1 -0.71,0.24 z"
         fill="#464646"
         id="path20"
         style="fill:#ffffff;fill-opacity:1" />
    </g>
  </g>
</svg>
